<?xml version="1.0" standalone="no"?>
<!DOCTYPE svg PUBLIC "-//W3C//DTD SVG 20010904//EN"
 "http://www.w3.org/TR/2001/REC-SVG-20010904/DTD/svg10.dtd">
<svg version="1.0" xmlns="http://www.w3.org/2000/svg"
 width="300.000000pt" height="100.000000pt" viewBox="0 0 300.000000 100.000000"
 preserveAspectRatio="xMidYMid meet">
<metadata>
Created by potrace 1.10, written by Peter Selinger 2001-2011
</metadata>
<g transform="translate(0.000000,100.000000) scale(0.050000,-0.050000)"
fill="#9b0d0d" stroke="none">
<path d="M796 1712 c-314 -85 -448 -321 -432 -760 12 -348 106 -523 341 -641
l103 -51 2192 0 2192 0 103 51 c252 126 332 292 334 689 1 386 -74 537 -338
677 l-101 53 -2150 4 c-1690 3 -2170 -2 -2244 -22z m4419 -234 c154 -75 194
-162 202 -443 11 -346 -65 -498 -276 -555 -172 -46 -4309 -17 -4373 31 -153
114 -177 171 -185 433 -9 318 1 361 106 466 114 114 -97 104 2310 107 l2128 3
88 -42z"/>
<path d="M950 1281 c-188 -77 -144 -315 64 -350 95 -16 135 -40 117 -69 -17
-27 -91 -28 -161 -2 -105 40 -174 -54 -94 -127 132 -119 424 -29 424 131 0
122 -45 165 -218 209 -127 32 -102 71 41 64 l127 -7 0 59 c0 94 -169 146 -300
92z"/>
<path d="M1364 1276 c-45 -45 -31 -368 19 -458 90 -160 308 -185 431 -50 127
138 92 558 -44 524 -49 -13 -50 -17 -50 -202 0 -179 -3 -191 -49 -221 -118
-77 -182 14 -163 234 15 178 -55 262 -144 173z"/>
<path d="M1966 1276 c-36 -44 -45 -534 -12 -568 86 -85 153 -10 137 154 -16
166 1 173 92 39 96 -143 151 -133 268 49 l39 60 10 -148 c11 -162 46 -213 115
-170 43 28 64 532 23 580 -60 73 -141 22 -257 -162 -76 -122 -65 -124 -189 43
-105 140 -180 181 -226 123z"/>
<path d="M2936 1276 c-46 -35 -258 -509 -243 -545 28 -73 167 -38 167 42 0 19
29 27 98 27 54 0 113 5 130 12 21 8 38 -4 51 -39 35 -94 145 -115 171 -33 7
23 -37 136 -114 293 -133 271 -173 309 -260 243z m100 -266 c22 -47 20 -50
-36 -50 -56 0 -58 3 -36 50 12 28 29 50 36 50 7 0 24 -22 36 -50z"/>
<path d="M4068 1271 c-146 -63 -212 -279 -129 -424 161 -283 561 -181 561 143
0 230 -220 374 -432 281z m219 -172 c74 -58 73 -160 -1 -219 -137 -108 -303
85 -179 209 62 62 110 64 180 10z"/>
<path d="M4583 1282 c-22 -13 -28 -81 -28 -292 0 -283 7 -309 86 -310 60 0 79
46 79 195 l0 147 166 -174 c237 -249 254 -240 254 131 0 302 -12 337 -110 313
-48 -12 -50 -19 -51 -167 l0 -155 -73 80 c-201 221 -231 250 -262 250 -19 0
-46 -8 -61 -18z"/>
<path d="M3334 1238 c-25 -93 41 -132 187 -112 104 14 101 5 -51 -146 -126
-125 -148 -171 -118 -248 17 -45 490 -47 527 -3 67 81 -25 140 -198 128 -129
-9 -128 -7 41 143 260 231 239 280 -120 280 -244 0 -258 -2 -268 -42z"/>
</g>
</svg>
